<svg xmlns="http://www.w3.org/2000/svg" width="140" height="120" viewBox="0 0 140 120">
  <g id="Group_35993" data-name="Group 35993" transform="translate(-620 -3072)">
    <g id="Rectangle_19501" data-name="Rectangle 19501" transform="translate(620 3072)" fill="#fff" stroke="#707070" stroke-width="1" opacity="0">
      <rect width="140" height="120" stroke="none"/>
      <rect x="0.5" y="0.5" width="139" height="119" fill="none"/>
    </g>
    <g id="Zatca" transform="translate(617.214 3117.782)">
      <path id="Path_34688" data-name="Path 34688" d="M160.2,39.413a.776.776,0,1,0-.722-.477A.779.779,0,0,0,160.2,39.413Z" transform="translate(-110.739 -11.574)" fill="#999"/>
      <path id="Path_34689" data-name="Path 34689" d="M167.711,39.441a.771.771,0,0,0,0-1.541.788.788,0,0,0-.771.771A.779.779,0,0,0,167.711,39.441Z" transform="translate(-116.056 -11.603)" fill="#999"/>
      <path id="Path_34694" data-name="Path 34694" d="M237.892,40.253a.776.776,0,1,0-.782-.782A.776.776,0,0,0,237.892,40.253Z" transform="translate(-165.665 -12.168)" fill="#999"/>
      <path id="Path_34697" data-name="Path 34697" d="M313.9,39.946a.779.779,0,1,0-.732-.778A.779.779,0,0,0,313.9,39.946Z" transform="translate(-219.441 -11.949)" fill="#999"/>
      <path id="Path_34698" data-name="Path 34698" d="M306.3,39.939a.782.782,0,1,0-.556-.232A.779.779,0,0,0,306.3,39.939Z" transform="translate(-214.03 -11.942)" fill="#999"/>
      <path id="Path_34700" data-name="Path 34700" d="M364.321,40.129a.779.779,0,1,0-.771-.782A.779.779,0,0,0,364.321,40.129Z" transform="translate(-255.057 -12.076)" fill="#999"/>
      <path id="Path_34702" data-name="Path 34702" d="M404.932,39.413a.776.776,0,1,0-.722-.477A.779.779,0,0,0,404.932,39.413Z" transform="translate(-283.761 -11.574)" fill="#999"/>
      <path id="Path_34703" data-name="Path 34703" d="M412.441,39.441a.771.771,0,0,0,0-1.541.788.788,0,0,0-.771.771A.779.779,0,0,0,412.441,39.441Z" transform="translate(-289.078 -11.603)" fill="#999"/>
      <path id="Path_34704" data-name="Path 34704" d="M426.283,37.586h-1.172a.736.736,0,0,1-.4-.639.36.36,0,0,1,.378-.413.481.481,0,0,1,.472.469h.659a1.1,1.1,0,0,0-1.14-1.172.979.979,0,0,0-1.064,1.049,1.058,1.058,0,0,0,.27.718h-.4v.727h2.394Z" transform="translate(-297.71 -10.137)" fill="#999"/>
      <g id="Group_36011" data-name="Group 36011" transform="translate(2.786 26.664)">
        <path id="Path_34682" data-name="Path 34682" d="M15.406,45.47h-1.1a.712.712,0,0,1-.39-.615.346.346,0,0,1,.372-.393c.237,0,.4.158.448.448h.6c-.056-.727-.457-1.108-1.061-1.108a.926.926,0,0,0-1,.985.979.979,0,0,0,.267.683H13.17v.659h2.236Z" transform="translate(-10.127 -42.438)" fill="#999"/>
        <path id="Path_34683" data-name="Path 34683" d="M9.978,44.772c0,.5-.2.917-.861.917H5.193a1.075,1.075,0,0,1-1.128-1.131V42.882H2.787v1.676a2.344,2.344,0,0,0,2.406,2.417h4.4a1.629,1.629,0,0,0,1.667-1.667V39.19H9.978Z" transform="translate(-2.786 -39.179)" fill="#999"/>
        <path id="Path_34684" data-name="Path 34684" d="M34.977,52.886a1.081,1.081,0,0,1-1.131,1.128H33.31V55.3h.548a2.365,2.365,0,0,0,2.417-2.414V47.36h-1.3Z" transform="translate(-24.366 -44.955)" fill="#999"/>
        <path id="Path_34685" data-name="Path 34685" d="M89.679,68.806a.774.774,0,1,0,.709.372A.774.774,0,0,0,89.679,68.806Z" transform="translate(-63.638 -60.116)" fill="#999"/>
        <path id="Path_34686" data-name="Path 34686" d="M66.364,45.178a.469.469,0,0,1-.469.5H64.431c-.234-.032-.5-.067-1.14-1.509-1.116-2.409-2.883-3.346-4.9-2.608v1.172c1.676-.65,2.672,0,3.487,1.588a8.957,8.957,0,0,0,.718,1.342H57.618a.689.689,0,0,1-.715-.727V43.7a2.4,2.4,0,0,0-2.45-2.458h-.123a2.4,2.4,0,0,0-2.45,2.458v1.254a.689.689,0,0,1-.715.727h-.911a.469.469,0,0,1-.469-.5V39.183H48.5v6.446a1.324,1.324,0,0,0,1.342,1.342h1.33a1.808,1.808,0,0,0,1.465-.706,2.9,2.9,0,0,0,1.869.668,2.142,2.142,0,0,0,1.609-.738,1.758,1.758,0,0,0,1.5.774h8.7a1.316,1.316,0,0,0,1.33-1.342V39.18H66.356Zm-10.742-.7a1.146,1.146,0,0,1-1.108,1.172,1.656,1.656,0,0,1-1.342-.615V43.7a1.11,1.11,0,0,1,1.172-1.172h.123A1.11,1.11,0,0,1,55.64,43.7Z" transform="translate(-35.105 -39.171)" fill="#999"/>
        <rect id="Rectangle_19502" data-name="Rectangle 19502" width="1.286" height="7.782" transform="translate(34.078 0.012)" fill="#999"/>
        <path id="Path_34687" data-name="Path 34687" d="M130.7,46.248h-.123a2.394,2.394,0,0,0-2.45,2.45v.794a2.429,2.429,0,0,0,2.37,2.461h1.354v.2c0,.905-.683,1.4-2.9,1.005v1.2c2.719.636,4.184-.325,4.184-1.893V48.7a2.385,2.385,0,0,0-2.438-2.45Zm1.152,4.419h-1.342a1.172,1.172,0,0,1-1.1-1.172v-.8a1.111,1.111,0,0,1,1.172-1.172h.123a1.1,1.1,0,0,1,1.152,1.172Z" transform="translate(-91.402 -44.168)" fill="#999"/>
        <path id="Path_34690" data-name="Path 34690" d="M182.457,70.07a.779.779,0,1,0,.782.771A.788.788,0,0,0,182.457,70.07Z" transform="translate(-129.262 -61.01)" fill="#999"/>
        <path id="Path_34691" data-name="Path 34691" d="M199.935,69.38a.779.779,0,1,0,.732.778A.779.779,0,0,0,199.935,69.38Z" transform="translate(-141.652 -60.523)" fill="#999"/>
        <path id="Path_34692" data-name="Path 34692" d="M170.37,50.6V46.644h-1.292V50.16a.472.472,0,0,1-.469.5h-2.324c-.65,0-.861-.413-.861-.917v-.19a2.881,2.881,0,0,0,0-.314v-2.59h-1.3v3.121a.771.771,0,0,1-.85.879h-.894a.691.691,0,0,1-.727-.727V46.219h-2.54a2.391,2.391,0,0,0-2.438,2.458v.774a2.426,2.426,0,0,0,2.382,2.458,2.212,2.212,0,0,0,1.743-.715,2.01,2.01,0,0,0,1.6.75h.879a1.9,1.9,0,0,0,1.509-.627,1.861,1.861,0,0,0,1.33.627h2.907A1.324,1.324,0,0,0,170.37,50.6Zm-9.962-.6a1.632,1.632,0,0,1-1.33.615,1.128,1.128,0,0,1-1.1-1.172v-.765a1.1,1.1,0,0,1,1.152-1.172h1.275Z" transform="translate(-111.585 -44.148)" fill="#999"/>
        <path id="Path_34693" data-name="Path 34693" d="M192.224,69.376a.779.779,0,1,0,.732.778A.779.779,0,0,0,192.224,69.376Z" transform="translate(-136.132 -60.519)" fill="#999"/>
        <path id="Path_34695" data-name="Path 34695" d="M222.3,45.178a.469.469,0,0,1-.483.5h-1.26v-.987c0-2.291-.949-3.367-2.851-3.367a4.511,4.511,0,0,0-3.188,1.846V41.89h-1.286v3.792h-1.776v-4.1h-1.3V47.1a1.072,1.072,0,0,1-1.119,1.128h-.56v1.286h.56a2.365,2.365,0,0,0,2.417-2.414v-.135h10.8a1.319,1.319,0,0,0,1.321-1.342V39.18h-1.286Zm-2.983.5h-4.8V44.4a4.184,4.184,0,0,1,3.03-1.79c1.017,0,1.758.6,1.758,2.092Z" transform="translate(-148.21 -39.171)" fill="#999"/>
        <rect id="Rectangle_19503" data-name="Rectangle 19503" width="1.286" height="7.782" transform="translate(76.906 0.012)" fill="#999"/>
        <path id="Path_34696" data-name="Path 34696" d="M276.871,46.248h-.123a2.394,2.394,0,0,0-2.45,2.45v.794a2.429,2.429,0,0,0,2.373,2.461h1.348v.2c0,.905-.68,1.4-2.895,1.005v1.2c2.716.636,4.181-.325,4.181-1.893V48.7a2.385,2.385,0,0,0-2.435-2.45Zm1.149,4.419h-1.342a1.172,1.172,0,0,1-1.1-1.172v-.8a1.111,1.111,0,0,1,1.172-1.172h.123a1.1,1.1,0,0,1,1.152,1.172Z" transform="translate(-194.742 -44.168)" fill="#999"/>
        <path id="Path_34699" data-name="Path 34699" d="M305.262,46.22h-.179A2.388,2.388,0,0,0,302.69,48.6v.949a2.368,2.368,0,0,0,2.394,2.382h.278a2.288,2.288,0,0,0,2.283-2.3V48.6a2.376,2.376,0,0,0-2.382-2.382Zm1.1,3.466a.958.958,0,0,1-.941.961h-.325A1.108,1.108,0,0,1,304,49.54V48.6a1.064,1.064,0,0,1,1.1-1.1h.179a1.064,1.064,0,0,1,1.1,1.1Z" transform="translate(-214.815 -44.149)" fill="#999"/>
        <path id="Path_34701" data-name="Path 34701" d="M363.275,45.178a.469.469,0,0,1-.472.5h-1.509v-4.1H360V47.1a1.072,1.072,0,0,1-1.119,1.128h-.56v1.286h.56a2.365,2.365,0,0,0,2.414-2.414v-.135h1.934a1.319,1.319,0,0,0,1.333-1.342V39.18h-1.286Z" transform="translate(-254.146 -39.171)" fill="#999"/>
        <rect id="Rectangle_19504" data-name="Rectangle 19504" width="1.286" height="7.782" transform="translate(111.945 0.012)" fill="#999"/>
        <path id="Path_34705" data-name="Path 34705" d="M436.909,69.31a.776.776,0,1,0,.774.771A.788.788,0,0,0,436.909,69.31Z" transform="translate(-309.157 -60.473)" fill="#999"/>
        <path id="Path_34706" data-name="Path 34706" d="M444.389,69.31a.776.776,0,1,0,.773.771A.776.776,0,0,0,444.389,69.31Z" transform="translate(-314.444 -60.473)" fill="#999"/>
        <path id="Path_34707" data-name="Path 34707" d="M418.8,46.276v.65a2.01,2.01,0,0,0-1.544,1.957v.586a1.553,1.553,0,0,0,.393,1.04H415.2c-.648,0-.861-.413-.861-.917V49.4a2.888,2.888,0,0,0,0-.314V46.511h-1.3v3.121a.77.77,0,0,1-.85.879h-1.374c-.659,0-.861-.413-.861-.917V46.511h-1.286V49.6c0,.5-.179.917-.85.917h-.642a.691.691,0,0,1-.727-.727V46.077H403.9a2.391,2.391,0,0,0-2.438,2.458v.774a2.426,2.426,0,0,0,2.382,2.458,2.212,2.212,0,0,0,1.743-.715,2.01,2.01,0,0,0,1.6.75h.659a1.908,1.908,0,0,0,1.509-.627,1.831,1.831,0,0,0,1.319.627H412.2a1.907,1.907,0,0,0,1.509-.627,1.855,1.855,0,0,0,1.33.627h7.167a2.4,2.4,0,0,0,2.406-2.406v-.771C424.564,46.792,422.282,45.427,418.8,46.276Zm-13.639,3.581a1.632,1.632,0,0,1-1.33.615,1.128,1.128,0,0,1-1.1-1.172v-.765a1.1,1.1,0,0,1,1.152-1.172h1.275Zm15.362.659h-1.119a1.116,1.116,0,0,1-1.052-1.075v-.5a1.086,1.086,0,1,1,2.171,0Zm1.644,0h-.548V48.972a1.659,1.659,0,0,0-1.31-1.723c1.691-.167,2.965.492,3,1.377v.738a1.152,1.152,0,0,1-1.14,1.152Z" transform="translate(-284.643 -44.006)" fill="#999"/>
        <path id="Path_34708" data-name="Path 34708" d="M333.63,44.811a2.133,2.133,0,0,1-2.127,2.133h-5.8A1.319,1.319,0,0,1,324.36,45.6V39.159h1.283v6a.469.469,0,0,0,.475.5h5.306a.949.949,0,0,0,.929-1.02c0-.7-.527-1.061-1.231-1.061H327.77l-.246-.958,1.969-3.472,1.207.46-1.532,2.681h1.966a2.491,2.491,0,0,1,2.5,2.52Z" transform="translate(-230.135 -39.15)" fill="#999"/>
        <path id="Path_34709" data-name="Path 34709" d="M7.5,91.611v1.02H2.79v-.817L5.837,87.3H2.975V86.29h4.4v.826L4.346,91.611Z" transform="translate(-2.789 -72.477)" fill="#999"/>
        <path id="Path_34710" data-name="Path 34710" d="M22.336,92.338l-.2-.75c1.512-.63,3.563-.677,3.563,1.313v3.188H24.569V95.5a1.963,1.963,0,0,1-1.465.65,1.2,1.2,0,0,1-1.251-1.28c0-1.055,1.028-1.779,2.734-1.705v-.249C24.578,91.8,23.4,91.931,22.336,92.338Zm.554,2.4c0,.378.308.566.686.566a1.386,1.386,0,0,0,1-.437V93.812C23.429,93.692,22.89,94.3,22.89,94.741Z" transform="translate(-16.265 -75.951)" fill="#999"/>
        <path id="Path_34711" data-name="Path 34711" d="M55.376,92.338l-.2-.75c1.5-.63,3.551-.677,3.551,1.313v3.188H57.609V95.5a1.963,1.963,0,0,1-1.465.65,1.2,1.2,0,0,1-1.251-1.28c0-1.055,1.028-1.779,2.734-1.705v-.249C57.618,91.8,56.44,91.931,55.376,92.338Zm.554,2.4c0,.378.308.566.686.566a1.386,1.386,0,0,0,1-.437V93.812C56.469,93.692,55.93,94.3,55.93,94.741Z" transform="translate(-39.623 -75.951)" fill="#999"/>
        <path id="Path_34712" data-name="Path 34712" d="M72.464,92.313a.428.428,0,0,0,.472.475,1.882,1.882,0,0,0,.419-.047v.809a5.859,5.859,0,0,1-.879.073c-.861,0-1.14-.445-1.14-1.2V89.81H70.75l.149-.844h.442V87.835l1.122-.275v1.406h.946l-.149.844h-.8Z" transform="translate(-50.837 -73.376)" fill="#999"/>
        <path id="Path_34713" data-name="Path 34713" d="M83.827,107.508H83.15a13.165,13.165,0,0,0,.369-2l.021-.334h.832l-.035.325A10.009,10.009,0,0,1,83.827,107.508Z" transform="translate(-59.602 -85.826)" fill="#999"/>
        <path id="Path_34714" data-name="Path 34714" d="M95.446,87.3v5.33H94.225V87.3H92.49V86.29h4.688V87.3Z" transform="translate(-66.206 -72.477)" fill="#999"/>
        <path id="Path_34715" data-name="Path 34715" d="M112.136,92.338l-.2-.75c1.5-.63,3.551-.677,3.551,1.307v3.188h-1.122V95.5a1.963,1.963,0,0,1-1.465.65,1.2,1.2,0,0,1-1.251-1.28c0-1.055,1.028-1.779,2.734-1.705v-.249C114.39,91.8,113.218,91.93,112.136,92.338Zm.557,2.4c0,.378.293.566.686.566a1.377,1.377,0,0,0,1-.437V93.811C113.218,93.691,112.693,94.295,112.693,94.74Z" transform="translate(-79.752 -75.95)" fill="#999"/>
        <path id="Path_34716" data-name="Path 34716" d="M129.295,92l.659.993.378.694h0l.4-.712.648-.976h1.172l-1.518,2.283,1.565,2.391h-1.345l-.653-.99-.39-.712h0l-.39.721-.63.976H127.95l1.576-2.391L127.965,92Z" transform="translate(-91.276 -76.515)" fill="#999"/>
        <path id="Path_34717" data-name="Path 34717" d="M154.076,92.338l-.193-.75c1.5-.63,3.548-.677,3.548,1.307v3.188h-1.122V95.5a1.957,1.957,0,0,1-1.465.65,1.2,1.2,0,0,1-1.251-1.28c0-1.055,1.028-1.779,2.734-1.705v-.249C156.321,91.8,155.143,91.93,154.076,92.338Zm.557,2.4c0,.378.293.566.686.566a1.386,1.386,0,0,0,1-.437V93.811C155.175,93.691,154.633,94.295,154.633,94.74Z" transform="translate(-109.404 -75.95)" fill="#999"/>
        <path id="Path_34718" data-name="Path 34718" d="M170.82,96.428V91.781h1.119v.428a2.432,2.432,0,0,1,1.521-.519c.926,0,1.4.536,1.4,1.509v3.223h-1.122V93.565c0-.51-.232-.8-.759-.8a1.817,1.817,0,0,0-1.04.425v3.223Z" transform="translate(-121.585 -76.295)" fill="#999"/>
        <path id="Path_34719" data-name="Path 34719" d="M190.076,92.594c-1.222,0-1.8-1.04-1.8-2.429s.63-2.429,1.861-2.429a1.65,1.65,0,0,1,1.207.527v-2.1h1.11v6.358h-1.11v-.481A1.758,1.758,0,0,1,190.076,92.594Zm.407-3.95c-.656,0-1.037.548-1.037,1.521s.381,1.521,1.037,1.521a1.4,1.4,0,0,0,.864-.316V88.961A1.465,1.465,0,0,0,190.483,88.645Z" transform="translate(-133.929 -72.386)" fill="#999"/>
        <path id="Path_34720" data-name="Path 34720" d="M216.383,92.516c-2.028,0-2.863-1.324-2.863-3.261S214.355,86,216.383,86a5.172,5.172,0,0,1,2.142.483v.935a7.085,7.085,0,0,0-2.01-.407c-1.172,0-1.773.762-1.773,2.253s.612,2.242,1.773,2.242a7.005,7.005,0,0,0,2.01-.4v.938A5.216,5.216,0,0,1,216.383,92.516Z" transform="translate(-151.774 -72.272)" fill="#999"/>
        <path id="Path_34721" data-name="Path 34721" d="M238.691,92v4.688h-1.122v-.454a2.368,2.368,0,0,1-1.521.545c-.935,0-1.4-.545-1.4-1.509V92h1.122v2.883c0,.51.231.8.759.8a1.869,1.869,0,0,0,1.037-.425V92Z" transform="translate(-166.712 -76.515)" fill="#999"/>
        <path id="Path_34722" data-name="Path 34722" d="M252.08,95.688v-.835a4.119,4.119,0,0,0,1.612.39c.694,0,.879-.334.879-.566,0-.369-.445-.51-.955-.694-.659-.223-1.447-.519-1.447-1.445S252.877,91,254.193,91a3.516,3.516,0,0,1,1.585.378V92.2a2.611,2.611,0,0,0-1.289-.372c-.733,0-1.037.334-1.037.612,0,.39.5.536,1.058.741.648.231,1.371.536,1.371,1.371,0,.973-.826,1.53-1.957,1.53A4.5,4.5,0,0,1,252.08,95.688Z" transform="translate(-179.036 -75.808)" fill="#999"/>
        <path id="Path_34723" data-name="Path 34723" d="M268.784,92.313a.428.428,0,0,0,.475.475,1.852,1.852,0,0,0,.416-.047v.809a5.845,5.845,0,0,1-.879.073c-.864,0-1.14-.445-1.14-1.2V89.81h-.586l.149-.844h.445V87.835l1.119-.275v1.406h.946l-.149.844h-.8Z" transform="translate(-189.632 -73.376)" fill="#999"/>
        <path id="Path_34724" data-name="Path 34724" d="M278.71,93.969a2.131,2.131,0,0,1,2.18-2.429c1.494,0,2.177,1.058,2.177,2.429a2.191,2.191,0,1,1-4.357,0Zm1.037,0c0,.908.363,1.62,1.143,1.62s1.119-.712,1.119-1.62-.343-1.623-1.119-1.623S279.747,93.061,279.747,93.969Z" transform="translate(-197.862 -76.19)" fill="#999"/>
        <path id="Path_34725" data-name="Path 34725" d="M304.24,93.179V96.4h-1.125V93.551c0-.51-.231-.8-.762-.8a1.758,1.758,0,0,0-1.02.437,2.069,2.069,0,0,1,.021.36v2.863H300.24V93.551c0-.51-.231-.8-.759-.8a1.7,1.7,0,0,0-1,.425V96.4H297.36V91.767h1.119v.615a2,2,0,0,1,1.483-.712,1.184,1.184,0,0,1,1.242.768,2.282,2.282,0,0,1,1.632-.768C303.777,91.67,304.24,92.206,304.24,93.179Z" transform="translate(-211.048 -76.282)" fill="#999"/>
        <path id="Path_34726" data-name="Path 34726" d="M324.48,95.688v-.835a4.143,4.143,0,0,0,1.615.39c.694,0,.879-.334.879-.566,0-.369-.445-.51-.955-.694-.656-.223-1.445-.519-1.445-1.445S325.277,91,326.6,91a3.493,3.493,0,0,1,1.582.378V92.2a2.6,2.6,0,0,0-1.286-.372c-.732,0-1.04.334-1.04.612,0,.39.5.536,1.058.741.648.231,1.371.536,1.371,1.371,0,.973-.823,1.53-1.954,1.53a4.507,4.507,0,0,1-1.846-.4Z" transform="translate(-230.221 -75.808)" fill="#999"/>
        <path id="Path_34727" data-name="Path 34727" d="M348.7,90.988l-.489,1.53H347l2.362-6.388h1l2.288,6.388H351.41l-.5-1.53Zm.223-.908h1.79l-.879-2.669Z" transform="translate(-246.142 -72.365)" fill="#999"/>
        <path id="Path_34728" data-name="Path 34728" d="M373.441,92v4.688h-1.122v-.454a2.365,2.365,0,0,1-1.518.545c-.938,0-1.4-.545-1.4-1.509V92h1.122v2.883c0,.51.231.8.759.8a1.869,1.869,0,0,0,1.037-.425V92Z" transform="translate(-261.98 -76.515)" fill="#999"/>
        <path id="Path_34729" data-name="Path 34729" d="M387.657,92.313a.425.425,0,0,0,.472.475,1.853,1.853,0,0,0,.416-.047v.809a5.845,5.845,0,0,1-.879.073c-.861,0-1.14-.445-1.14-1.2V89.81h-.586l.149-.844h.454V87.835l1.122-.275v1.406h.929l-.146.844h-.791Z" transform="translate(-273.673 -73.376)" fill="#999"/>
        <path id="Path_34730" data-name="Path 34730" d="M401.941,89.375V92.6h-1.122V89.747c0-.519-.24-.779-.686-.788a1.937,1.937,0,0,0-1.11.416V92.6H397.9V86.29h1.122v2.051a2.435,2.435,0,0,1,1.409-.527A1.413,1.413,0,0,1,401.941,89.375Z" transform="translate(-282.128 -72.477)" fill="#999"/>
        <path id="Path_34731" data-name="Path 34731" d="M415.36,93.969a2.131,2.131,0,0,1,2.18-2.429c1.494,0,2.177,1.058,2.177,2.429a2.191,2.191,0,1,1-4.357,0Zm1.037,0c0,.908.363,1.62,1.143,1.62s1.119-.712,1.119-1.62-.343-1.623-1.119-1.623S416.4,93.061,416.4,93.969Z" transform="translate(-294.473 -76.19)" fill="#999"/>
        <path id="Path_34732" data-name="Path 34732" d="M434,96.644V92h1.119v.879A1.758,1.758,0,0,1,436.7,92v.879a1.7,1.7,0,0,0-1.576.853v2.93Z" transform="translate(-307.65 -76.512)" fill="#999"/>
        <path id="Path_34733" data-name="Path 34733" d="M445.89,87.156a.586.586,0,1,1,.586.586A.586.586,0,0,1,445.89,87.156Zm1.157,5.652h-1.125v-4.53h1.122Z" transform="translate(-316.057 -72.675)" fill="#999"/>
        <path id="Path_34734" data-name="Path 34734" d="M455.384,92.313a.425.425,0,0,0,.472.475,1.9,1.9,0,0,0,.419-.047v.809a5.86,5.86,0,0,1-.879.073c-.861,0-1.14-.445-1.14-1.2V89.81h-.586l.146-.844h.445V87.835l1.122-.275v1.406h.946l-.149.844h-.8Z" transform="translate(-321.558 -73.376)" fill="#999"/>
        <path id="Path_34735" data-name="Path 34735" d="M469.25,92,467,98.341H465.93L466.4,97l-1.855-4.981h1.26l1.1,3.616h0L468.043,92Z" transform="translate(-329.25 -76.515)" fill="#999"/>
        <path id="Path_34736" data-name="Path 34736" d="M42.925,92.607H41.609l-1.48-2.145v2.145H39.01V86.29h1.119v3.6l1.4-2.036h1.257L41.111,90.1Z" transform="translate(-28.396 -72.477)" fill="#999"/>
      </g>
      <g id="Group_36010" data-name="Group 36010" transform="translate(56.05 -19.782)">
        <rect id="Rectangle_19505" data-name="Rectangle 19505" width="19.494" height="0.369" transform="matrix(0.826, -0.563, 0.563, 0.826, 0.043, 10.982)" fill="#999"/>
        <rect id="Rectangle_19506" data-name="Rectangle 19506" width="15.62" height="0.369" transform="translate(0.062 8.996) rotate(-34.28)" fill="#999"/>
        <rect id="Rectangle_19507" data-name="Rectangle 19507" width="10.879" height="0.369" transform="translate(0.069 6.989) rotate(-34.37)" fill="#999"/>
        <rect id="Rectangle_19508" data-name="Rectangle 19508" width="4.527" height="0.369" transform="matrix(0.823, -0.568, 0.568, 0.823, 0.083, 4.992)" fill="#999"/>
        <path id="Path_34737" data-name="Path 34737" d="M541.381,43.214l0,0-2.611,1.781,0,0-13.432,9.156.278.407-1.826,1.275.144.205-3.885,2.71.211.3,4.287-2.995h0l1.415-.99h0l13.642-9.3-.281-.41,2.4-1.638-.138-.2,8.764-5.974-.208-.3Z" transform="translate(-516.944 -29.029)" fill="#999"/>
        <path id="Path_34738" data-name="Path 34738" d="M544.37,49.5v0l-2.8,1.9,0,0-13,8.863.276.4L526.9,62.037l.138.2L523.23,64.9l.214.3,3.806-2.663,0,0,1.949-1.36,0,0,13.042-8.893-.281-.407,2.751-1.875-.138-.2,8.011-5.462-.208-.3Z" transform="translate(-519.192 -33.837)" fill="#999"/>
        <path id="Path_34739" data-name="Path 34739" d="M547.617,55.816l0,0L545.3,57.39v0l-13.267,9.045.276.4-1.79,1.251.138.2-3.847,2.7.211.3,3.847-2.7,0,.006,1.785-1.245,0,0L545.932,58.3l-.278-.407,2.306-1.573-.135-.2,7.284-4.966-.208-.3Z" transform="translate(-521.723 -38.652)" fill="#999"/>
        <path id="Path_34740" data-name="Path 34740" d="M551.478,61.873v0l-2.294,1.562,0,.006L535.77,72.545l.284.416-2.288,1.6.141.2-3.176,2.221.214.3,3.627-2.535v0l2.438-1.7,12.919-8.77-.278-.413,2.174-1.483-.138-.2,6.182-4.213-.208-.3Z" transform="translate(-524.495 -43.466)" fill="#999"/>
        <path id="Path_34741" data-name="Path 34741" d="M555.993,67.73l0-.006-2.508,1.711v0l-11.638,7.938.275.4L539.368,79.7l.141.2-4.3,3,.211.3,4.679-3.27h0l2.365-1.653,0,0,11.709-7.984-.278-.41,2.438-1.661-.135-.2,4.823-3.29-.208-.3Z" transform="translate(-527.662 -48.259)" fill="#999"/>
        <path id="Path_34742" data-name="Path 34742" d="M562.709,72.889l-.067-.1L559.7,74.794h0l-11.266,7.683.281.41-3.036,2.121.141.2-5.327,3.724.211.3,5.7-3.985h0l2.933-2.051,10.985-7.489-.278-.407,2.945-2.007-.173-.255.105.152,1.828-1.292-.214-.3Z" transform="translate(-531.395 -53.322)" fill="#999"/>
        <path id="Path_34743" data-name="Path 34743" d="M566.364,79.314v-.006l-1.658,1.131h0l-6.625,4.518.281.41-2.8,1.96.141.2L545.59,94.594l.211.3,10.5-7.343h0l2.458-1.717,0,0,6.566-4.477-.275-.407,1.658-1.131-.138-.2,1.737-1.184-.208-.3Z" transform="translate(-535 -57.938)" fill="#999"/>
        <path id="Path_34744" data-name="Path 34744" d="M570.478,86.462l-.035-.05-1.562,1.064h0l-5.26,3.583.278.41L561.45,93.18l.141.205-10.651,7.442.211.3,11.2-7.823v0l2.151-1.5,5-3.414-.275-.4,1.562-1.067-.173-.252,1.193-.815-.138-.2Z" transform="translate(-538.782 -63.255)" fill="#999"/>
        <path id="Path_34745" data-name="Path 34745" d="M511.04,22.746h0l1.5-1.046h0l5.661-3.859-.278-.407,2.488-1.694-.135-.2,8.38-5.717-.208-.3-8.38,5.714,0,0-2.488,1.7v0l-5.995,4.087.281.41-1.424.993.144.2-1.04.73.211.3Z" transform="translate(-509.513 -9.431)" fill="#999"/>
        <path id="Path_34746" data-name="Path 34746" d="M511.945,24.756v0l1.477-1.031,7-4.773-.275-.4,1.931-1.319-.129-.188,9.121-6.276-.211-.3-9.118,6.273-.009-.015L519.8,18.034h0l-7.445,5.075.281.413-1.28.894.141.2-2,1.4.214.3Z" transform="translate(-509.477 -10.096)" fill="#999"/>
        <path id="Path_34747" data-name="Path 34747" d="M512.248,27.524h0l1.963-1.371,7.618-5.2-.284-.416,2.048-1.4-.129-.19,9.836-6.768-.211-.3-9.833,6.768-.009-.012-2.136,1.456.006.009-7.984,5.444.281.413-1.726,1.207.141.2L509.45,29.03l.214.3Z" transform="translate(-509.45 -11.1)" fill="#999"/>
        <path id="Path_34748" data-name="Path 34748" d="M513.069,30.377h0l2.139-1.494,8.1-5.52-.278-.41,2.16-1.474-.144-.211,10.534-7.1-.205-.3-10.677,7.2.006.009-2.028,1.386h0l-8.7,5.93.284.413-1.987,1.389.141.2L509.5,32.419l.211.3Z" transform="translate(-509.485 -12.5)" fill="#999"/>
        <path id="Path_34749" data-name="Path 34749" d="M514.437,33.439l1.38-.964v0l9.332-6.367-.278-.407,2.414-1.647-.135-.2,10.592-7.223-.208-.3-10.592,7.223,0,0-2.429,1.655v0l-9.318,6.352.275.407-1.781,1.245.144.205-3.751,2.614.214.3,4.146-2.892Z" transform="translate(-509.895 -14.246)" fill="#999"/>
        <path id="Path_34750" data-name="Path 34750" d="M516.165,36.312l1.573-1.1,9.649-6.578-.278-.407,2.672-1.823-.138-.2,10.882-7.422-.208-.3L529.435,25.9l0-.006L526.6,27.827v0l-9.8,6.684.281.413L515.4,36.1l.141.2-4.328,3.024.211.3,4.747-3.314Z" transform="translate(-510.693 -15.766)" fill="#999"/>
        <path id="Path_34751" data-name="Path 34751" d="M517.565,40.116l2.256-1.576,11.389-7.721-.281-.413,2.52-1.717-.138-.2L543.418,21.6l-.208-.308L533.1,28.182l0,0-2.6,1.773,0,.006-11.829,8.017.281.416-2.11,1.474.144.2-4.184,2.921.211.3,4.544-3.173Z" transform="translate(-511.825 -17.752)" fill="#999"/>
        <path id="Path_34752" data-name="Path 34752" d="M519.272,43.982l2-1.395,12.365-8.433-.275-.4,2.532-1.723-.138-.2,10.692-7.29-.208-.3-10.692,7.29,0,0-2.529,1.726,0,0-12.64,8.62.278.41-2.139,1.494.141.2-3.821,2.669.211.3,4.234-2.959Z" transform="translate(-513.253 -19.831)" fill="#999"/>
        <path id="Path_34753" data-name="Path 34753" d="M521.354,50.094l1.694-1.181h0l13.2-9-.275-.407,2.414-1.647-.138-.2,10.115-6.9-.208-.3-10.115,6.9,0-.006L535.624,39h0l-13.2,9,.278.4-2,1.395.149.211-3.636,2.517.211.3,3.932-2.722Z" transform="translate(-514.943 -24.236)" fill="#999"/>
        <rect id="Rectangle_19509" data-name="Rectangle 19509" width="22.254" height="0.369" transform="translate(13.691 38.465) rotate(-34.87)" fill="#999"/>
        <rect id="Rectangle_19510" data-name="Rectangle 19510" width="18.73" height="0.369" transform="matrix(0.821, -0.571, 0.571, 0.821, 15.147, 39.855)" fill="#999"/>
        <rect id="Rectangle_19511" data-name="Rectangle 19511" width="8.228" height="0.369" transform="matrix(0.821, -0.571, 0.571, 0.821, 20.592, 38.083)" fill="#999"/>
      </g>
    </g>
  </g>
</svg>
